<?xml version="1.0" encoding="UTF-8"?>
<svg version="1.1" xmlns="http://www.w3.org/2000/svg" width="500" height="500">
<path d="M0 0 C165 0 330 0 500 0 C500 165 500 330 500 500 C335 500 170 500 0 500 C0 335 0 170 0 0 Z " fill="#050419" transform="translate(0,0)"/>
<path d="M0 0 C0.92791351 -0.01283524 1.85582703 -0.02567047 2.81185913 -0.03889465 C4.31965439 -0.04997505 4.31965439 -0.04997505 5.85791016 -0.0612793 C6.88880768 -0.06935104 7.9197052 -0.07742279 8.98184204 -0.08573914 C11.16577469 -0.0995845 13.34972901 -0.11030462 15.53369141 -0.11816406 C18.87655482 -0.13539282 22.2184335 -0.17927737 25.56103516 -0.22338867 C27.68081954 -0.23351398 29.80061234 -0.24203059 31.92041016 -0.2487793 C32.92155853 -0.26628738 33.92270691 -0.28379547 34.95419312 -0.30183411 C41.86951137 -0.28017831 41.86951137 -0.28017831 45.16894531 2.03173828 C46.79751367 4.61388013 46.85523668 6.17762577 46.52197266 9.17700195 C47.61509766 9.44512695 48.70822266 9.71325195 49.83447266 9.98950195 C55.05223202 11.66979734 55.05223202 11.66979734 56.52197266 14.17700195 C57.01731432 20.23967031 55.57511209 25.01180154 53.63525391 30.65356445 C53.33636765 31.54183929 53.03748138 32.43011414 52.72953796 33.3453064 C52.09682116 35.21454429 51.45859601 37.08192572 50.81518555 38.94750977 C49.83721185 41.79402916 48.88675267 44.64875883 47.93798828 47.50512695 C47.3178906 49.32600121 46.69619881 51.14633353 46.07275391 52.96606445 C45.79232742 53.8151236 45.51190094 54.66418274 45.22297668 55.53897095 C43.48203412 60.50145116 41.73266853 63.78392907 37.52197266 67.17700195 C34.71305235 68.11330872 32.93341385 68.31811171 30.0222168 68.35400391 C29.11439957 68.36683914 28.20658234 68.37967438 27.27125549 68.39289856 C26.29309372 68.40028549 25.31493195 68.40767242 24.30712891 68.4152832 C23.29984238 68.42335495 22.29255585 68.4314267 21.25474548 68.43974304 C19.12386797 68.45357315 16.99296841 68.4643001 14.86206055 68.47216797 C11.60048756 68.48941726 8.33991876 68.53331756 5.07861328 68.57739258 C3.00895928 68.58751649 0.93929666 68.59603353 -1.13037109 68.6027832 C-2.10650864 68.62029129 -3.08264618 68.63779938 -4.08836365 68.65583801 C-10.79873276 68.63428774 -10.79873276 68.63428774 -14.14038086 66.38476562 C-16.1145181 63.12648436 -15.30816165 60.7742506 -14.47802734 57.17700195 C-15.73615234 57.23887695 -16.99427734 57.30075195 -18.29052734 57.36450195 C-20.80916686 57.34221311 -22.20798341 57.31202392 -24.47802734 56.17700195 C-27.07584284 50.98137095 -25.35867643 44.88843839 -23.64987183 39.65647888 C-23.25156662 38.50454796 -23.25156662 38.50454796 -22.84521484 37.3293457 C-22.5708963 36.51381729 -22.29657776 35.69828888 -22.01394653 34.85804749 C-21.4332521 33.14415491 -20.84630378 31.43236973 -20.25341797 29.72265625 C-19.35661436 27.12489243 -18.49057419 24.51821811 -17.62646484 21.90942383 C-17.05538349 20.23627023 -16.48252471 18.56372204 -15.90771484 16.8918457 C-15.65432343 16.12186752 -15.40093201 15.35188934 -15.13986206 14.55857849 C-12.49453729 7.08088858 -8.54548738 0.10278475 0 0 Z " fill="#1AC9E7" transform="translate(34.47802734375,215.822998046875)"/>
<path d="M0 0 C4.07395078 0.39172604 5.56600957 1.23380509 8.25 4.3125 C8.86584101 10.32882991 7.28863602 15.18948041 5.36328125 20.7890625 C5.06439499 21.67733734 4.76550873 22.56561218 4.45756531 23.48080444 C3.8248485 25.35004234 3.18662336 27.21742377 2.54321289 29.08300781 C1.5652392 31.92952721 0.61478002 34.78425688 -0.33398438 37.640625 C-0.95408206 39.46149925 -1.57577385 41.28183158 -2.19921875 43.1015625 C-2.47964523 43.95062164 -2.76007172 44.79968079 -3.04899597 45.67446899 C-4.78993853 50.63694921 -6.53930413 53.91942712 -10.75 57.3125 C-13.5589203 58.24880677 -15.3385588 58.45360975 -18.24975586 58.48950195 C-19.15757309 58.50233719 -20.06539032 58.51517242 -21.00071716 58.52839661 C-22.46795982 58.53947701 -22.46795982 58.53947701 -23.96484375 58.55078125 C-24.97213028 58.558853 -25.97941681 58.56692474 -27.01722717 58.57524109 C-29.14810468 58.58907119 -31.27900424 58.59979815 -33.40991211 58.60766602 C-36.67148509 58.6249153 -39.9320539 58.6688156 -43.19335938 58.71289062 C-45.26301338 58.72301454 -47.33267599 58.73153158 -49.40234375 58.73828125 C-50.37848129 58.75578934 -51.35461884 58.77329742 -52.3603363 58.79133606 C-59.10377519 58.76967958 -59.10377519 58.76967958 -62.37719727 56.45385742 C-64.04525825 53.85194333 -64.16030293 52.34874168 -63.75 49.3125 C-61.75344187 47.31594187 -57.76279751 48.12786796 -55.0234375 48.1015625 C-53.41795895 48.07347102 -51.81249035 48.04480644 -50.20703125 48.015625 C-47.67269409 47.97451971 -45.13853801 47.93764159 -42.60400391 47.91113281 C-40.16008815 47.88334471 -37.71702108 47.83744936 -35.2734375 47.7890625 C-34.5252475 47.78580963 -33.7770575 47.78255676 -33.00619507 47.77920532 C-27.27492417 47.64678113 -22.35542801 46.75121272 -18.00634766 42.68041992 C-16.09385465 39.07582029 -14.89131283 35.30445003 -13.6484375 31.42578125 C-13.36650543 30.56816696 -13.08457336 29.71055267 -12.7940979 28.82695007 C-11.89724067 26.09524742 -11.01058915 23.3603743 -10.125 20.625 C-9.23069243 17.87946618 -8.33424381 15.13466511 -7.43447876 12.39091492 C-6.87557552 10.68488815 -6.32012697 8.97772514 -5.7684021 7.2693634 C-3.52746954 0.40084881 -3.52746954 0.40084881 0 0 Z " fill="#0558EC" transform="translate(82.75,225.6875)"/>
<path d="M0 0 C0.92791351 -0.01283524 1.85582703 -0.02567047 2.81185913 -0.03889465 C4.31965439 -0.04997505 4.31965439 -0.04997505 5.85791016 -0.0612793 C6.88880768 -0.06935104 7.9197052 -0.07742279 8.98184204 -0.08573914 C11.16577469 -0.0995845 13.34972901 -0.11030462 15.53369141 -0.11816406 C18.87655482 -0.13539282 22.2184335 -0.17927737 25.56103516 -0.22338867 C27.68081954 -0.23351398 29.80061234 -0.24203059 31.92041016 -0.2487793 C32.92155853 -0.26628738 33.92270691 -0.28379547 34.95419312 -0.30183411 C41.73726398 -0.28059245 41.73726398 -0.28059245 45.24707031 1.76611328 C47.04925725 5.17411711 46.36887947 7.50707244 45.52197266 11.17700195 C44.40226074 11.15605469 43.28254883 11.13510742 42.12890625 11.11352539 C37.95813889 11.04089769 33.78742697 10.99511985 29.61621094 10.95727539 C27.81403185 10.93721163 26.01191745 10.90995382 24.20996094 10.87524414 C21.61328129 10.82649367 19.01746537 10.80398113 16.42041016 10.78637695 C15.62017426 10.76573181 14.81993835 10.74508667 13.99545288 10.72381592 C8.70382429 10.72171326 5.70143786 11.63992059 1.52197266 15.17700195 C-3.23567629 22.69537563 -5.43997975 31.69179655 -8.16552734 40.11450195 C-8.9106451 42.40512034 -9.65754211 44.69512104 -10.40791321 46.98402405 C-10.87199614 48.40077787 -11.33286702 49.81858869 -11.79020691 51.23753357 C-13.3663608 56.06533541 -13.3663608 56.06533541 -14.47802734 57.17700195 C-21.56374163 57.63414481 -21.56374163 57.63414481 -24.47802734 56.17700195 C-27.07584284 50.98137095 -25.35867643 44.88843839 -23.64987183 39.65647888 C-23.25156662 38.50454796 -23.25156662 38.50454796 -22.84521484 37.3293457 C-22.5708963 36.51381729 -22.29657776 35.69828888 -22.01394653 34.85804749 C-21.4332521 33.14415491 -20.84630378 31.43236973 -20.25341797 29.72265625 C-19.35661436 27.12489243 -18.49057419 24.51821811 -17.62646484 21.90942383 C-17.05538349 20.23627023 -16.48252471 18.56372204 -15.90771484 16.8918457 C-15.65432343 16.12186752 -15.40093201 15.35188934 -15.13986206 14.55857849 C-12.49453729 7.08088858 -8.54548738 0.10278475 0 0 Z " fill="#1AB7BB" transform="translate(34.47802734375,215.822998046875)"/>
<path d="M0 0 C3.3 0 6.6 0 10 0 C12.95517334 7.24816164 15.67647472 14.5457635 18.25 21.9375 C18.61351562 22.96423828 18.97703125 23.99097656 19.3515625 25.04882812 C19.86589844 26.52319336 19.86589844 26.52319336 20.390625 28.02734375 C20.70032227 28.91156006 21.01001953 29.79577637 21.32910156 30.70678711 C22 33 22 33 22 36 C19.36 36 16.72 36 14 36 C13.34 33.69 12.68 31.38 12 29 C7.38 29 2.76 29 -2 29 C-2.99 32.465 -2.99 32.465 -4 36 C-6.64 36 -9.28 36 -12 36 C-9.91241244 27.74816978 -7.2459577 19.79880349 -4.3125 11.8125 C-3.68891602 10.09836914 -3.68891602 10.09836914 -3.05273438 8.34960938 C-2.03907179 5.56495009 -1.02143976 2.78181383 0 0 Z " fill="#E7E7E8" transform="translate(346,228)"/>
<path d="M0 0 C3.58552881 1.63687185 4.79315055 2.68972583 7 6 C7.22705078 7.90112305 7.22705078 7.90112305 7.1953125 10.01171875 C7.18886719 10.76904297 7.18242187 11.52636719 7.17578125 12.30664062 C7.15902344 13.09232422 7.14226562 13.87800781 7.125 14.6875 C7.11597656 15.48478516 7.10695312 16.28207031 7.09765625 17.10351562 C7.07411585 19.069139 7.03824547 21.03460775 7 23 C7.99 23 8.98 23 10 23 C10 24.65 10 26.3 10 28 C3.6 28.36923077 3.6 28.36923077 0.5625 26.5 C0.046875 26.005 -0.46875 25.51 -1 25 C-1 25.66 -1 26.32 -1 27 C-4.46238087 28.73119043 -8.21417655 28.47070629 -12 28 C-14.5625 26.4375 -14.5625 26.4375 -16 24 C-16.625 20.5625 -16.625 20.5625 -16 17 C-11.72506788 12.06738602 -7.32429916 10.94161787 -1 10 C-1 9.01 -1 8.02 -1 7 C-5.54805635 6.82164485 -8.8794254 7.00214565 -13 9 C-13.66 7.35 -14.32 5.7 -15 4 C-9.64061209 0.42707473 -6.45357898 -0.72862988 0 0 Z " fill="#E6E6E7" transform="translate(165,236)"/>
<path d="M0 0 C0.75023437 -0.04898438 1.50046875 -0.09796875 2.2734375 -0.1484375 C6.00915173 0.68310022 7.37846279 2.32584705 9.625 5.375 C10.20934455 8.34445388 10.10157506 11.17609157 9.9375 14.1875 C9.91494141 14.97576172 9.89238281 15.76402344 9.86914062 16.57617188 C9.81054161 18.50993929 9.72086827 20.44272167 9.625 22.375 C10.945 22.375 12.265 22.375 13.625 22.375 C13.625 24.355 13.625 26.335 13.625 28.375 C6.875 28.5 6.875 28.5 4.625 27.375 C4.625 26.715 4.625 26.055 4.625 25.375 C4.150625 25.87 3.67625 26.365 3.1875 26.875 C-0.60086418 29.09257903 -4.08745856 29.06730027 -8.375 28.375 C-10.9375 26.8125 -10.9375 26.8125 -12.375 24.375 C-12.91254934 20.61215463 -13.0028425 18.40237863 -11 15.125 C-7.67110153 12.90573436 -4.40223142 12.14533554 -0.51953125 11.28125 C0.54201172 10.83265625 0.54201172 10.83265625 1.625 10.375 C2.5010595 8.35447498 2.5010595 8.35447498 2.625 6.375 C1.72007812 6.5915625 1.72007812 6.5915625 0.796875 6.8125 C-0.00234375 6.998125 -0.8015625 7.18375 -1.625 7.375 C-2.41390625 7.560625 -3.2028125 7.74625 -4.015625 7.9375 C-6.375 8.375 -6.375 8.375 -10.375 8.375 C-10.705 7.055 -11.035 5.735 -11.375 4.375 C-7.67071136 1.43711591 -4.72823515 0.20978518 0 0 Z " fill="#E5E5E6" transform="translate(266.375,235.625)"/>
<path d="M0 0 C4.33219178 2.75684932 4.33219178 2.75684932 5.75 5.75 C5.75 8.72 5.75 11.69 5.75 14.75 C-0.19 14.75 -6.13 14.75 -12.25 14.75 C-11.59 16.4 -10.93 18.05 -10.25 19.75 C-6.89541845 20.51522801 -6.89541845 20.51522801 -3.25 20.75 C-1.28568595 19.45735301 -1.28568595 19.45735301 -0.25 17.75 C1.4 18.41 3.05 19.07 4.75 19.75 C4.39199502 22.34553608 3.98835403 23.52109123 2.07421875 25.359375 C-2.29694574 27.9747272 -7.32912568 27.3693166 -12.25 26.75 C-15.77121839 24.70769333 -17.00217677 23.12173484 -19.25 19.75 C-19.87933194 14.78821446 -20.41364908 9.26274024 -18.26953125 4.6328125 C-13.27963476 -1.53930562 -7.39950978 -2.8459653 0 0 Z " fill="#E6E6E7" transform="translate(325.25,237.25)"/>
<path d="M0 0 C2.31 0 4.62 0 7 0 C7.33 0.99 7.66 1.98 8 3 C8.515625 2.505 9.03125 2.01 9.5625 1.5 C12.93763128 -0.57700386 15.09800946 -0.47919182 19 0 C21.75329021 1.79562405 23.52627461 3.05254922 25 6 C25.08426094 7.6674606 25.10725143 9.33825187 25.09765625 11.0078125 C25.09443359 11.99394531 25.09121094 12.98007813 25.08789062 13.99609375 C25.07951172 15.02863281 25.07113281 16.06117188 25.0625 17.125 C25.05798828 18.16527344 25.05347656 19.20554688 25.04882812 20.27734375 C25.03701952 22.85161962 25.02055075 25.42578146 25 28 C22.69 28 20.38 28 18 28 C17.97494385 27.39937744 17.9498877 26.79875488 17.92407227 26.17993164 C17.8084472 23.47388563 17.68557064 20.76821717 17.5625 18.0625 C17.52318359 17.11697266 17.48386719 16.17144531 17.44335938 15.19726562 C17.40146484 14.29814453 17.35957031 13.39902344 17.31640625 12.47265625 C17.27974854 11.64000244 17.24309082 10.80734863 17.20532227 9.94946289 C17.20632897 7.99661142 17.20632897 7.99661142 16 7 C13.66702567 6.95907063 11.33294775 6.95758277 9 7 C8.11360611 9.65918166 7.82010975 11.48064641 7.68359375 14.23046875 C7.64169922 15.03291016 7.59980469 15.83535156 7.55664062 16.66210938 C7.51732422 17.49548828 7.47800781 18.32886719 7.4375 19.1875 C7.39431641 20.03248047 7.35113281 20.87746094 7.30664062 21.74804688 C7.20068482 23.83184433 7.0998498 25.91590103 7 28 C4.69 28 2.38 28 0 28 C0 18.76 0 9.52 0 0 Z " fill="#E5E5E6" transform="translate(180,236)"/>
<path d="M0 0 C9.24 0 18.48 0 28 0 C28 1.98 28 3.96 28 6 C24.7 6 21.4 6 18 6 C18 15.9 18 25.8 18 36 C15.69 36 13.38 36 11 36 C11 26.1 11 16.2 11 6 C7.37 6 3.74 6 0 6 C0 4.02 0 2.04 0 0 Z " fill="#ECECEC" transform="translate(95,228)"/>
<path d="M0 0 C3.5 1.5 3.5 1.5 6 3 C5.34 4.32 4.68 5.64 4 7 C0.33333333 7 -3.33333333 7 -7 7 C-6.67 7.99 -6.34 8.98 -6 10 C-3.51719223 10.92104159 -1.02350353 11.46102469 1.5546875 12.05859375 C4.49335997 13.18993571 5.43460009 14.30347242 7 17 C7.65454929 20.84547708 7.29284835 22.50107319 5.3125 25.875 C0.23651432 29.1312927 -5.12166949 28.90089357 -11 28 C-13.40234375 26.46875 -13.40234375 26.46875 -15 25 C-14.6875 23.125 -14.6875 23.125 -14 21 C-13.01 20.34 -12.02 19.68 -11 19 C-10.46375 19.495 -9.9275 19.99 -9.375 20.5 C-6.40641555 22.37489544 -4.44687573 22.23501425 -1 22 C-1.11430194 20.02218648 -1.11430194 20.02218648 -2 18 C-4.25213376 16.96573573 -4.25213376 16.96573573 -6.9375 16.4375 C-11.79126489 15.31310267 -11.79126489 15.31310267 -14 12 C-14.67092652 5.84984026 -14.67092652 5.84984026 -12.125 2.625 C-8.24467482 -0.34230749 -4.77256126 -0.53028458 0 0 Z " fill="#E5E5E6" transform="translate(226,236)"/>
<path d="M0 0 C0 2.31 0 4.62 0 7 C2.64 7 5.28 7 8 7 C8 8.65 8 10.3 8 12 C5.36 12 2.72 12 0 12 C0.33 16.95 0.66 21.9 1 27 C3.31 27.66 5.62 28.32 8 29 C8.33 30.32 8.66 31.64 9 33 C6.54617866 34.22691067 4.80015897 34.20175931 2.0625 34.25 C1.18722656 34.27578125 0.31195313 34.3015625 -0.58984375 34.328125 C-3 34 -3 34 -4.75390625 32.671875 C-7.66179027 28.77038797 -7.1149817 24.43492653 -7.0625 19.8125 C-7.05798828 19.06291016 -7.05347656 18.31332031 -7.04882812 17.54101562 C-7.03706354 15.69397617 -7.01912865 13.84697787 -7 12 C-8.32 12 -9.64 12 -11 12 C-11 10.35 -11 8.7 -11 7 C-9.68 7 -8.36 7 -7 7 C-7 5.02 -7 3.04 -7 1 C-2.25 0 -2.25 0 0 0 Z " fill="#EAEAEB" transform="translate(293,230)"/>
<path d="M0 0 C2.31 0 4.62 0 7 0 C7.33 10.56 7.66 21.12 8 32 C8.99 32.33 9.98 32.66 11 33 C11 34.65 11 36.3 11 38 C3.57530182 38.36514909 3.57530182 38.36514909 1.390625 36.97851562 C-0.77246488 33.90097342 -0.36772744 30.6723841 -0.29296875 27.05078125 C-0.28872391 26.27816452 -0.28447906 25.50554779 -0.28010559 24.70951843 C-0.26332183 22.24349008 -0.22567147 19.77828104 -0.1875 17.3125 C-0.17245271 15.63998577 -0.15876438 13.96745872 -0.14648438 12.29492188 C-0.11341946 8.19629922 -0.06164028 4.09828849 0 0 Z " fill="#ECECEC" transform="translate(239,226)"/>
<path d="M0 0 C2.31 0 4.62 0 7 0 C7 11.88 7 23.76 7 36 C4.69 36 2.38 36 0 36 C0 24.12 0 12.24 0 0 Z " fill="#ECECEC" transform="translate(374,228)"/>
<path d="M0 0 C2.31 0 4.62 0 7 0 C7.33 0.66 7.66 1.32 8 2 C8.66 1.34 9.32 0.68 10 0 C13.625 -0.125 13.625 -0.125 17 0 C16.67 1.98 16.34 3.96 16 6 C14.865625 6.309375 13.73125 6.61875 12.5625 6.9375 C9.21224901 7.62924531 9.21224901 7.62924531 8 9 C7.84417697 10.34015221 7.74955858 11.68758903 7.68359375 13.03515625 C7.64169922 13.84404297 7.59980469 14.65292969 7.55664062 15.48632812 C7.51732422 16.33646484 7.47800781 17.18660156 7.4375 18.0625 C7.39431641 18.91650391 7.35113281 19.77050781 7.30664062 20.65039062 C7.20023298 22.76672037 7.09958269 24.88333813 7 27 C4.69 27 2.38 27 0 27 C0 18.09 0 9.18 0 0 Z " fill="#EBEBEC" transform="translate(129,237)"/>
<path d="M0 0 C0.66 0 1.32 0 2 0 C2.67031719 1.9570868 3.33614683 3.91571113 4 5.875 C4.556875 7.51082031 4.556875 7.51082031 5.125 9.1796875 C6 12 6 12 6 14 C2.7 14 -0.6 14 -4 14 C-3.52188823 12.22888156 -3.0424722 10.45811517 -2.5625 8.6875 C-2.29566406 7.70136719 -2.02882813 6.71523437 -1.75390625 5.69921875 C-1.21920575 3.78482474 -0.62855462 1.88566385 0 0 Z " fill="#201F32" transform="translate(350,236)"/>
<path d="M0 0 C-0.875 6.875 -0.875 6.875 -2 8 C-3.99958364 8.04080783 -6.00045254 8.04254356 -8 8 C-8.625 5.625 -8.625 5.625 -9 3 C-6.31795079 0.31795079 -3.73391546 0 0 0 Z " fill="#0F0E22" transform="translate(165,251)"/>
<path d="M0 0 C-0.33 2.31 -0.66 4.62 -1 7 C-3.31 7.33 -5.62 7.66 -8 8 C-8.625 5.625 -8.625 5.625 -9 3 C-6.31795079 0.31795079 -3.73391546 0 0 0 Z " fill="#111024" transform="translate(270,251)"/>
<path d="M0 0 C2 2 2 2 2 5 C-1.63 5 -5.26 5 -9 5 C-8.67 3.68 -8.34 2.36 -8 1 C-5.23749964 -0.38125018 -3.05268901 -0.19079306 0 0 Z " fill="#0B0A1F" transform="translate(322,242)"/>
</svg>
