<?xml version="1.0" encoding="UTF-8"?>
<svg version="1.1" xmlns="http://www.w3.org/2000/svg" width="500" height="500">
<path d="M0 0 C165 0 330 0 500 0 C500 165 500 330 500 500 C335 500 170 500 0 500 C0 335 0 170 0 0 Z " fill="#00040F" transform="translate(0,0)"/>
<path d="M0 0 C1.00445663 -0.00524185 2.00891327 -0.0104837 3.04380798 -0.0158844 C5.16274085 -0.02229583 7.28170936 -0.02097901 9.40063477 -0.01245117 C12.64468485 -0.00392638 15.88698248 -0.03273959 19.13085938 -0.06445312 C21.19140572 -0.06606487 23.25195519 -0.06548811 25.3125 -0.0625 C26.76729515 -0.07935097 26.76729515 -0.07935097 28.2514801 -0.09654236 C35.01131593 -0.02643434 35.01131593 -0.02643434 38.10717773 2.43530273 C38.59645752 3.09473877 39.0857373 3.7541748 39.58984375 4.43359375 C41.5720977 4.97306799 41.5720977 4.97306799 43.58984375 4.93359375 C46.56713907 5.18355325 47.51453921 5.38276318 50.08984375 7.12109375 C52.09514419 10.2125986 51.87882165 11.74932168 51.58984375 15.43359375 C50.82411935 18.60744562 49.81181159 21.68335499 48.7734375 24.77734375 C48.33222313 26.10832092 48.33222313 26.10832092 47.88209534 27.46618652 C47.25734417 29.3370362 46.62750851 31.2061947 45.99291992 33.07373047 C45.03290963 35.91710862 44.10691584 38.77016044 43.18164062 41.625 C42.56847089 43.4473106 41.95330096 45.26894963 41.3359375 47.08984375 C41.06583359 47.93687866 40.79572968 48.78391357 40.5174408 49.65661621 C38.25399227 56.13746344 34.79362155 60.33170485 28.58984375 63.43359375 C27.16133238 63.54297936 25.72799017 63.59258272 24.29541016 63.6105957 C23.40753815 63.62343094 22.51966614 63.63626617 21.60488892 63.64949036 C20.64343964 63.65687729 19.68199036 63.66426422 18.69140625 63.671875 C17.70490082 63.67994675 16.71839539 63.68801849 15.70199585 63.69633484 C13.61222087 63.71017913 11.52242324 63.72089973 9.43261719 63.72875977 C6.23459159 63.74598737 3.0375957 63.78987235 -0.16015625 63.83398438 C-2.18879447 63.84410984 -4.21744149 63.8526264 -6.24609375 63.859375 C-7.68219498 63.88563713 -7.68219498 63.88563713 -9.14730835 63.91242981 C-15.83858272 63.89053729 -15.83858272 63.89053729 -18.88867188 61.45214844 C-19.39076172 60.78602539 -19.89285156 60.11990234 -20.41015625 59.43359375 C-22.90927542 58.64515426 -22.90927542 58.64515426 -25.53515625 58.37109375 C-28.16796875 58.0234375 -28.16796875 58.0234375 -30.41015625 57.43359375 C-33.22801522 53.2068053 -32.31067983 50.27306403 -31.41015625 45.43359375 C-30.68767635 42.53449341 -29.78691739 39.71942842 -28.828125 36.890625 C-28.5726741 36.11853195 -28.31722321 35.3464389 -28.05403137 34.5509491 C-27.51626981 32.93361315 -26.97403569 31.31775792 -26.42749023 29.70336914 C-25.59762113 27.24598974 -24.78723782 24.78276805 -23.97851562 22.31835938 C-23.45037292 20.73789509 -22.92111391 19.15780332 -22.390625 17.578125 C-22.15192184 16.84987015 -21.91321869 16.1216153 -21.6672821 15.37129211 C-19.82541288 9.99284277 -17.66901327 5.42188178 -13.31079102 1.58569336 C-8.90921161 -0.16256463 -4.69520686 -0.01424145 0 0 Z " fill="#1ACAE7" transform="translate(73.41015625,220.56640625)"/>
<path d="M0 0 C7.6875 -0.203125 7.6875 -0.203125 10.5 1.625 C12.48054087 4.76085638 12.2911731 6.2919567 12 10 C11.23419041 13.17383199 10.22196832 16.2497598 9.18359375 19.34375 C8.74237938 20.67472717 8.74237938 20.67472717 8.29225159 22.03259277 C7.66750042 23.90344245 7.03766476 25.77260095 6.40307617 27.64013672 C5.44306588 30.48351487 4.51707209 33.33656669 3.59179688 36.19140625 C2.97862714 38.01371685 2.36345721 39.83535588 1.74609375 41.65625 C1.47598984 42.50328491 1.20588593 43.35031982 0.92759705 44.22302246 C-1.33585148 50.70386969 -4.7962222 54.8981111 -11 58 C-12.42834894 58.11437406 -13.86170604 58.16933663 -15.29443359 58.19287109 C-16.1823056 58.20893402 -17.07017761 58.22499695 -17.98495483 58.24154663 C-22.04237124 58.28595895 -26.09962409 58.32705018 -30.15722656 58.35009766 C-32.29893854 58.36667236 -34.44059487 58.39398213 -36.58203125 58.43212891 C-39.66695907 58.48680935 -42.7505908 58.5087569 -45.8359375 58.5234375 C-47.27203873 58.55744156 -47.27203873 58.55744156 -48.7371521 58.59213257 C-55.40601088 58.5708767 -55.40601088 58.5708767 -58.63525391 55.46728516 C-59.08562012 54.65308105 -59.53598633 53.83887695 -60 53 C-58.37372681 52.98598145 -58.37372681 52.98598145 -56.71459961 52.97167969 C-52.66813003 52.93161928 -48.62240798 52.86581714 -44.57641602 52.79248047 C-42.82976937 52.76436348 -41.08299768 52.74310303 -39.33618164 52.72900391 C-36.81592215 52.7074448 -34.29715142 52.66073167 -31.77734375 52.609375 C-30.6175425 52.60753204 -30.6175425 52.60753204 -29.43431091 52.60565186 C-23.8901197 52.45796465 -20.5115092 51.29108032 -16 48 C-14.55324678 45.9226221 -14.55324678 45.9226221 -13.953125 43.44921875 C-13.65083984 42.48032715 -13.34855469 41.51143555 -13.03710938 40.51318359 C-12.69486328 39.35383301 -12.35261719 38.19448242 -12 37 C-11.52906599 35.54476653 -11.05278358 34.09125719 -10.57226562 32.63916016 C-8.93964376 27.70496459 -7.3435519 22.75942702 -5.75 17.8125 C-5.19028778 16.0800188 -4.63039334 14.34759645 -4.0703125 12.61523438 C-2.71144118 8.41083147 -1.35503416 4.20564107 0 0 Z " fill="#0559EB" transform="translate(113,226)"/>
<path d="M0 0 C1.50668495 -0.01142029 1.50668495 -0.01142029 3.04380798 -0.02307129 C5.16272499 -0.03385641 7.2816951 -0.03673186 9.40063477 -0.03222656 C12.64493954 -0.03125222 15.88689467 -0.07293486 19.13085938 -0.1171875 C21.19140132 -0.12239314 23.25195148 -0.12508272 25.3125 -0.125 C26.28236343 -0.14139526 27.25222687 -0.15779053 28.2514801 -0.17468262 C34.99194554 -0.10533835 34.99194554 -0.10533835 38.23217773 3.00585938 C38.68020752 3.81861328 39.1282373 4.63136719 39.58984375 5.46875 C38.5004248 5.48333252 37.41100586 5.49791504 36.28857422 5.51293945 C32.2291659 5.57111072 28.17030138 5.64834182 24.11132812 5.73120117 C22.35783748 5.7643622 20.60424237 5.79242142 18.85058594 5.81518555 C16.32311677 5.8488947 13.79659737 5.90121692 11.26953125 5.95703125 C10.49116913 5.96342117 9.71280701 5.9698111 8.91085815 5.97639465 C3.34361562 6.12524877 -0.94954804 7.06388604 -5.09130859 11.11181641 C-7.06486179 14.63878467 -8.25968521 18.34634012 -9.51171875 22.1796875 C-9.79365082 23.02544342 -10.07558289 23.87119934 -10.36605835 24.74258423 C-10.95953794 26.52837394 -11.54935374 28.31538489 -12.13574219 30.10351562 C-13.03061956 32.82992812 -13.93816977 35.5518681 -14.84765625 38.2734375 C-15.42393515 40.01276985 -15.99948034 41.75234551 -16.57421875 43.4921875 C-16.84400543 44.30174896 -17.11379211 45.11131042 -17.39175415 45.94540405 C-18.75043163 50.10773642 -19.8333141 54.10970833 -20.41015625 58.46875 C-27.56041532 58.94543394 -27.56041532 58.94543394 -30.97265625 57.03125 C-33.39434282 52.71433046 -32.03554381 47.99058945 -30.87680054 43.31802368 C-30.23844994 41.16992775 -29.54746265 39.04810182 -28.828125 36.92578125 C-28.5726741 36.1536882 -28.31722321 35.38159515 -28.05403137 34.58610535 C-27.51626981 32.9687694 -26.97403569 31.35291417 -26.42749023 29.73852539 C-25.59762113 27.28114599 -24.78723782 24.8179243 -23.97851562 22.35351562 C-23.45037292 20.77305134 -22.92111391 19.19295957 -22.390625 17.61328125 C-22.15192184 16.8850264 -21.91321869 16.15677155 -21.6672821 15.40644836 C-19.8257416 10.02895894 -17.67080195 5.4562464 -13.31079102 1.62304688 C-8.91183194 -0.12750261 -4.69438284 0.00097694 0 0 Z " fill="#19B7B9" transform="translate(73.41015625,220.53125)"/>
<path d="M0 0 C2.97 0 5.94 0 9 0 C9 13.86 9 27.72 9 42 C5 42 1 42 -3 42 C-3.74894531 42.05800781 -4.49789062 42.11601562 -5.26953125 42.17578125 C-12.9797786 42.59031068 -12.9797786 42.59031068 -16.5625 39.625 C-20.50900304 35.3749198 -20.33337031 32.34498576 -20.2890625 26.703125 C-19.90221266 23.08555623 -18.69975742 21.39121371 -16 19 C-12.877998 16.91866533 -12.06733011 16.7262178 -8.5 16.75 C-7.7265625 16.74484375 -6.953125 16.7396875 -6.15625 16.734375 C-4 17 -4 17 -1 19 C-0.67 12.73 -0.34 6.46 0 0 Z " fill="#E7E8E8" transform="translate(238,231)"/>
<path d="M0 0 C2.64 0 5.28 0 8 0 C8.33 0.66 8.66 1.32 9 2 C9.99 1.34 10.98 0.68 12 0 C17.34635097 -0.43115734 20.67965526 -0.48027771 25 3 C28.16506157 5.99397716 28.93632095 7.50648737 29.5 11.875 C29.23691352 16.51409164 27.7710952 19.28089855 25 23 C21.47888771 25.56080894 18.99355153 26.21994245 14.75 25.8125 C11 25 11 25 9 23 C8.67 28.28 8.34 33.56 8 39 C5.36 39 2.72 39 0 39 C0 26.13 0 13.26 0 0 Z " fill="#EBEBEC" transform="translate(287,248)"/>
<path d="M0 0 C4.44884001 2.61400769 7.1557506 5.55912222 9.57421875 10.09375 C9.57421875 10.75375 9.57421875 11.41375 9.57421875 12.09375 C6.19211451 12.38927367 2.94710268 12.53549905 -0.42578125 12.09375 C-3.17578125 9.59375 -3.17578125 9.59375 -5.42578125 7.09375 C-9.5083207 6.31198713 -11.10411639 6.91167555 -14.73828125 8.96875 C-17.54632325 11.18906228 -18.2710435 11.84479532 -18.69921875 15.30078125 C-18.8732085 19.7642875 -18.88870239 22.34710299 -16.48828125 26.21875 C-12.41979987 28.70965697 -9.09112934 29.09600159 -4.42578125 28.09375 C-3.78640625 27.43375 -3.14703125 26.77375 -2.48828125 26.09375 C0.13409419 23.55084048 1.25064193 23.82375796 4.82421875 23.84375 C6.40844722 23.90785173 7.9924226 23.98507698 9.57421875 24.09375 C7.82675514 29.19051886 5.48234332 32.67488814 1.13671875 35.90625 C-4.97990435 37.94512437 -11.76949374 38.44110634 -17.90625 36.1796875 C-23.24074061 33.0770757 -26.46284106 28.98257056 -28.42578125 23.09375 C-29.15789868 16.33666614 -28.63941412 10.60576974 -24.42578125 5.09375 C-17.70794779 -1.04390694 -8.76053879 -3.27285829 0 0 Z " fill="#E8E9E9" transform="translate(170.42578125,235.90625)"/>
<path d="M0 0 C4.43793873 2.13972046 7.08717799 4.43048075 9 9 C9.54223844 13.26044487 9.30065535 15.42096006 7.3125 19.25 C4.30183838 22.83024625 1.76858759 24.71436001 -2.90234375 25.46875 C-12.10565081 25.56350734 -12.10565081 25.56350734 -15.6875 22.625 C-19.45020207 18.35382468 -19.39187637 15.26620961 -19.35546875 9.703125 C-19 7 -19 7 -16.6875 3.9375 C-10.863335 -0.26131663 -7.11156649 -0.8240871 0 0 Z " fill="#E8E8E8" transform="translate(204,248)"/>
<path d="M0 0 C3.62 3.258 3.62 3.258 4.5 6.25 C4.5 8.23 4.5 10.21 4.5 12.25 C-1.77 12.25 -8.04 12.25 -14.5 12.25 C-13.84 13.57 -13.18 14.89 -12.5 16.25 C-9.58347826 16.41681109 -9.58347826 16.41681109 -6.5 16.25 C-5.84 15.59 -5.18 14.93 -4.5 14.25 C-1.81160615 13.98008094 0.79141936 14.16262643 3.5 14.25 C3.29852906 17.87647696 2.74417598 19.03024161 0 21.5 C-4.92211134 23.96105567 -9.33368737 25.13502836 -14.75 23.62109375 C-18.29644973 22.06300278 -20.20020944 20.66221202 -22.5 17.5 C-23.70729284 13.57629828 -24.3642024 10.30448231 -23.5 6.25 C-21.76527721 3.00899528 -19.4339746 0.83706975 -16.3125 -1.125 C-10.47861676 -2.4214185 -5.4139468 -2.7069734 0 0 Z " fill="#E7E7E7" transform="translate(366.5,249.75)"/>
<path d="M0 0 C2.64989344 1.80968333 4.12880175 2.88260349 5.5625 5.75 C5.5625 8.06 5.5625 10.37 5.5625 12.75 C-0.3775 12.75 -6.3175 12.75 -12.4375 12.75 C-11.7775 14.07 -11.1175 15.39 -10.4375 16.75 C-8.4575 16.75 -6.4775 16.75 -4.4375 16.75 C-4.1075 16.09 -3.7775 15.43 -3.4375 14.75 C-0.7975 14.75 1.8425 14.75 4.5625 14.75 C4.0672783 18.41464055 3.5416794 20.45832354 0.5625 22.75 C-4.37906178 24.39718726 -9.29260655 24.4669658 -14.4375 23.75 C-18.52769095 21.56302819 -20.96961345 19.15365965 -22.4375 14.75 C-22.83294498 10.55828319 -22.70710901 8.26924698 -20.75 4.5 C-15.07495741 -2.24869929 -8.12851469 -2.95582352 0 0 Z " fill="#E7E8E8" transform="translate(418.4375,249.25)"/>
<path d="M0 0 C3.54813789 1.94787975 6.18410919 4.36821838 8 8 C8 9.98 8 11.96 8 14 C1.73 14 -4.54 14 -11 14 C-10.34 15.32 -9.68 16.64 -9 18 C-7.02 18 -5.04 18 -3 18 C-2.67 17.34 -2.34 16.68 -2 16 C0.97 16 3.94 16 7 16 C5.65667829 21.49540699 5.65667829 21.49540699 2.82421875 23.671875 C-0.49006412 25.23045892 -2.84822521 25.43323391 -6.5 25.4375 C-7.6034375 25.45683594 -8.706875 25.47617187 -9.84375 25.49609375 C-13.68431458 24.89244065 -15.27400482 23.73079447 -18 21 C-20.63374556 16.92893598 -20.93259918 12.70251283 -20 8 C-15.08699033 -0.12304359 -9.15379947 -1.27265835 0 0 Z " fill="#E8E8E8" transform="translate(273,248)"/>
<path d="M0 0 C2.97 0 5.94 0 9 0 C9 2.97 9 5.94 9 9 C10.32 9 11.64 9 13 9 C13 11.31 13 13.62 13 16 C11.68 16 10.36 16 9 16 C9 21.94 9 27.88 9 34 C6.03 34 3.06 34 0 34 C0 28.06 0 22.12 0 16 C-1.32 16 -2.64 16 -4 16 C-4 13.69 -4 11.38 -4 9 C-2.68 9 -1.36 9 0 9 C0 6.03 0 3.06 0 0 Z " fill="#E4E4E5" transform="translate(379,239)"/>
<path d="M0 0 C6 0 12 0 18 0 C18 2.64 18 5.28 18 8 C16.865625 7.979375 15.73125 7.95875 14.5625 7.9375 C11.18424326 7.58422523 11.18424326 7.58422523 10 9 C9.76321284 11.69235776 9.57801975 14.36498156 9.4375 17.0625 C9.39431641 17.82111328 9.35113281 18.57972656 9.30664062 19.36132812 C9.20026367 21.24065438 9.09960066 23.12030244 9 25 C6.03 25 3.06 25 0 25 C0 16.75 0 8.5 0 0 Z " fill="#E2E3E3" transform="translate(322,248)"/>
<path d="M0 0 C2.64 0 5.28 0 8 0 C8.33 0.66 8.66 1.32 9 2 C9.66 1.34 10.32 0.68 11 0 C14.125 -0.125 14.125 -0.125 17 0 C17 2.64 17 5.28 17 8 C16.05125 7.95875 15.1025 7.9175 14.125 7.875 C10.89755144 7.65026182 10.89755144 7.65026182 9 10 C8.69400937 12.56916657 8.48912913 15.04758384 8.375 17.625 C8.31699219 18.68460937 8.31699219 18.68460937 8.2578125 19.765625 C8.16352276 21.50998524 8.08067109 23.25495691 8 25 C5.36 25 2.72 25 0 25 C0 16.75 0 8.5 0 0 Z " fill="#EDEDED" transform="translate(431,248)"/>
<path d="M0 0 C3.5 0.25 3.5 0.25 5.5 2.25 C6.043379 8.22716895 6.043379 8.22716895 4.4375 11.25 C1.30758074 12.8654422 -1.18174093 12.04884015 -4.5 11.25 C-6.00662097 8.23675805 -5.67770373 5.56713623 -5.5 2.25 C-3.5 0.25 -3.5 0.25 0 0 Z " fill="#070B16" transform="translate(198.5,254.75)"/>
<path d="M0 0 C3.0625 0.3125 3.0625 0.3125 5 1.375 C6.72915678 4.52816824 5.9215699 6.93758255 5.0625 10.3125 C2.0625 12.3125 2.0625 12.3125 -0.5 12.0625 C-2.9375 11.3125 -2.9375 11.3125 -4.9375 9.3125 C-5.1875 5.8125 -5.1875 5.8125 -4.9375 2.3125 C-2.9375 0.3125 -2.9375 0.3125 0 0 Z " fill="#090D18" transform="translate(231.9375,254.6875)"/>
<path d="M0 0 C3.0625 0.3125 3.0625 0.3125 5 1.375 C6.72915678 4.52816824 5.9215699 6.93758255 5.0625 10.3125 C2.0625 12.3125 2.0625 12.3125 -0.5 12.0625 C-2.9375 11.3125 -2.9375 11.3125 -4.9375 9.3125 C-5.1875 5.8125 -5.1875 5.8125 -4.9375 2.3125 C-2.9375 0.3125 -2.9375 0.3125 0 0 Z " fill="#0A0E18" transform="translate(300.9375,254.6875)"/>
<path d="M0 0 C5.61 0 11.22 0 17 0 C17.33 1.32 17.66 2.64 18 4 C17.67 3.34 17.34 2.68 17 2 C14.36 2 11.72 2 9 2 C8.67 2.99 8.34 3.98 8 5 C5.125 5.125 5.125 5.125 2 5 C1.34 4.34 0.68 3.68 0 3 C0 2.01 0 1.02 0 0 Z " fill="#10141E" transform="translate(406,262)"/>
<path d="M0 0 C2.79173055 -0.02690104 5.58320348 -0.04679053 8.375 -0.0625 C9.56609375 -0.07506836 9.56609375 -0.07506836 10.78125 -0.08789062 C16.7734375 -0.11328125 16.7734375 -0.11328125 19 1 C18.67 1.66 18.34 2.32 18 3 C16.72125 2.95875 15.4425 2.9175 14.125 2.875 C11.98128508 2.75787127 11.98128508 2.75787127 10 3 C9.34 3.66 8.68 4.32 8 5 C4.875 5.125 4.875 5.125 2 5 C1.34 3.35 0.68 1.7 0 0 Z " fill="#0E121C" transform="translate(352,262)"/>
<path d="M0 0 C5.61 0 11.22 0 17 0 C17.33 0.66 17.66 1.32 18 2 C15.03 2 12.06 2 9 2 C8.67 2.99 8.34 3.98 8 5 C5.125 5.125 5.125 5.125 2 5 C1.34 4.34 0.68 3.68 0 3 C0 2.01 0 1.02 0 0 Z " fill="#0C101A" transform="translate(262,262)"/>
<path d="M0 0 C2.33944736 0.28730055 4.6739143 0.61936779 7 1 C7.33 2.32 7.66 3.64 8 5 C4.37 5 0.74 5 -3 5 C-1 1 -1 1 0 0 Z " fill="#494B53" transform="translate(408,253)"/>
<path d="M0 0 C1.8125 1.375 1.8125 1.375 3 3 C3 3.66 3 4.32 3 5 C-0.63 5 -4.26 5 -8 5 C-7.67 3.68 -7.34 2.36 -7 1 C-4.45132831 -0.27433584 -2.82594567 -0.27570202 0 0 Z " fill="#282B34" transform="translate(270,253)"/>
<path d="M0 0 C2.625 0.25 2.625 0.25 4.4375 1.625 C5.625 3.25 5.625 3.25 5.625 5.25 C1.995 5.25 -1.635 5.25 -5.375 5.25 C-2.90277778 0.30555556 -2.90277778 0.30555556 0 0 Z " fill="#242831" transform="translate(357.375,252.75)"/>
<path d="M0 0 C3.125 -0.1875 3.125 -0.1875 6 0 C6.33 0.99 6.66 1.98 7 3 C4.03 3 1.06 3 -2 3 C-1.34 2.01 -0.68 1.02 0 0 Z " fill="#070B15" transform="translate(409,254)"/>
</svg>
